# xmcd
#
# Track frame offsets:
#	180
#	18664
#	31434
#	42633
#	54474
#	65744
#	76183
#	86970
#	96870
#	106359
#	118178
#	128615
#	141498
#	152631
#	163468
#	177756
#
# Disc length: 2494 seconds
#
# Revision: 1
# Processed by: cddbd v1.5.1PL0 Copyright (c) Steve Scherf et al.
# Submitted via: EasyCDDAExtractor 7.0.9.1
#
DISCID=e609bc10
DTITLE=Brook Benton - Anthology CD1
DYEAR=1900
DGENRE=
TTITLE0=Rainy Night In Georgia
TTITLE1=The Boll Weevil Song
TTITLE2=It's Just A Matter Of Time
TTITLE3=Hotel Happiness
TTITLE4=So Many Ways
TTITLE5=My True Confession
TTITLE6=I Want To Thank You
TTITLE7=Lie To Me
TTITLE8=Shadrack
TTITLE9=Kiddio
TTITLE10=Fools Rush In
TTITLE11=Think Twice
TTITLE12=Revenge
TTITLE13=Frankie and Johnnie
TTITLE14=For My Baby
TTITLE15=So Close
EXTD=
EXTT0=
EXTT1=
EXTT2=
EXTT3=
EXTT4=
EXTT5=
EXTT6=
EXTT7=
EXTT8=
EXTT9=
EXTT10=
EXTT11=
EXTT12=
EXTT13=
EXTT14=
EXTT15=
PLAYORDER=
